<mxfile host="app.diagrams.net" agent="Mozilla/5.0 (Windows NT 10.0; Win64; x64; rv:133.0) Gecko/20100101 Firefox/133.0" version="25.0.3">
  <diagram name="Страница — 1" id="54fE9i5us4jK0uKHG2Ug">
    <mxGraphModel dx="477" dy="478" grid="1" gridSize="10" guides="1" tooltips="1" connect="1" arrows="1" fold="1" page="1" pageScale="1" pageWidth="291" pageHeight="413" math="0" shadow="0">
      <root>
        <mxCell id="0" />
        <mxCell id="1" parent="0" />
        <mxCell id="8Xw2kXQYmFnIUzHD24_5-2" style="edgeStyle=orthogonalEdgeStyle;rounded=0;orthogonalLoop=1;jettySize=auto;html=1;entryX=0.5;entryY=0;entryDx=0;entryDy=0;" edge="1" parent="1" source="8Xw2kXQYmFnIUzHD24_5-1" target="8Xw2kXQYmFnIUzHD24_5-3">
          <mxGeometry relative="1" as="geometry">
            <mxPoint x="497" y="260" as="targetPoint" />
          </mxGeometry>
        </mxCell>
        <mxCell id="8Xw2kXQYmFnIUzHD24_5-1" value="начало" style="ellipse;whiteSpace=wrap;html=1;" vertex="1" parent="1">
          <mxGeometry x="437" y="40" width="120" height="80" as="geometry" />
        </mxCell>
        <mxCell id="8Xw2kXQYmFnIUzHD24_5-3" value="int main()" style="shape=process;whiteSpace=wrap;html=1;backgroundOutline=1;" vertex="1" parent="1">
          <mxGeometry x="437" y="240" width="120" height="60" as="geometry" />
        </mxCell>
        <mxCell id="8Xw2kXQYmFnIUzHD24_5-4" value="" style="endArrow=none;dashed=1;html=1;rounded=0;" edge="1" parent="1">
          <mxGeometry width="50" height="50" relative="1" as="geometry">
            <mxPoint x="497" y="180" as="sourcePoint" />
            <mxPoint x="623" y="180" as="targetPoint" />
            <Array as="points">
              <mxPoint x="527" y="180" />
            </Array>
          </mxGeometry>
        </mxCell>
        <mxCell id="8Xw2kXQYmFnIUzHD24_5-5" value="" style="endArrow=none;html=1;rounded=0;" edge="1" parent="1">
          <mxGeometry width="50" height="50" relative="1" as="geometry">
            <mxPoint x="623" y="300" as="sourcePoint" />
            <mxPoint x="623" y="110" as="targetPoint" />
          </mxGeometry>
        </mxCell>
        <mxCell id="8Xw2kXQYmFnIUzHD24_5-6" value="" style="endArrow=none;html=1;rounded=0;" edge="1" parent="1">
          <mxGeometry width="50" height="50" relative="1" as="geometry">
            <mxPoint x="623" y="110" as="sourcePoint" />
            <mxPoint x="683" y="110" as="targetPoint" />
          </mxGeometry>
        </mxCell>
        <mxCell id="8Xw2kXQYmFnIUzHD24_5-7" value="" style="endArrow=none;html=1;rounded=0;" edge="1" parent="1">
          <mxGeometry width="50" height="50" relative="1" as="geometry">
            <mxPoint x="623" y="300" as="sourcePoint" />
            <mxPoint x="683" y="300" as="targetPoint" />
            <Array as="points" />
          </mxGeometry>
        </mxCell>
        <mxCell id="8Xw2kXQYmFnIUzHD24_5-8" value="#include&amp;lt;iostream&amp;gt;" style="text;html=1;align=center;verticalAlign=middle;whiteSpace=wrap;rounded=0;" vertex="1" parent="1">
          <mxGeometry x="653" y="110" width="60" height="30" as="geometry" />
        </mxCell>
        <mxCell id="8Xw2kXQYmFnIUzHD24_5-9" value="#include&amp;lt;cmath&amp;gt;" style="text;html=1;align=center;verticalAlign=middle;whiteSpace=wrap;rounded=0;" vertex="1" parent="1">
          <mxGeometry x="633" y="130" width="80" height="30" as="geometry" />
        </mxCell>
        <mxCell id="8Xw2kXQYmFnIUzHD24_5-10" value="using namespace std;" style="text;html=1;align=center;verticalAlign=middle;whiteSpace=wrap;rounded=0;" vertex="1" parent="1">
          <mxGeometry x="613" y="150" width="150" height="30" as="geometry" />
        </mxCell>
        <mxCell id="8Xw2kXQYmFnIUzHD24_5-11" value="const int a = 0;" style="text;html=1;align=center;verticalAlign=middle;whiteSpace=wrap;rounded=0;" vertex="1" parent="1">
          <mxGeometry x="613" y="170" width="120" height="30" as="geometry" />
        </mxCell>
        <mxCell id="8Xw2kXQYmFnIUzHD24_5-12" value="const int b = 1;" style="text;html=1;align=center;verticalAlign=middle;whiteSpace=wrap;rounded=0;" vertex="1" parent="1">
          <mxGeometry x="613" y="190" width="120" height="30" as="geometry" />
        </mxCell>
        <mxCell id="8Xw2kXQYmFnIUzHD24_5-13" value="const double E = 0.000001;" style="text;html=1;align=center;verticalAlign=middle;whiteSpace=wrap;rounded=0;" vertex="1" parent="1">
          <mxGeometry x="613" y="210" width="180" height="30" as="geometry" />
        </mxCell>
        <mxCell id="8Xw2kXQYmFnIUzHD24_5-14" value="double x0, x1;" style="text;html=1;align=center;verticalAlign=middle;whiteSpace=wrap;rounded=0;" vertex="1" parent="1">
          <mxGeometry x="613" y="230" width="110" height="30" as="geometry" />
        </mxCell>
        <mxCell id="8Xw2kXQYmFnIUzHD24_5-15" value="int counter = 1;" style="text;html=1;align=center;verticalAlign=middle;whiteSpace=wrap;rounded=0;" vertex="1" parent="1">
          <mxGeometry x="618" y="250" width="110" height="30" as="geometry" />
        </mxCell>
        <mxCell id="8Xw2kXQYmFnIUzHD24_5-16" value="bool flag = 1;" style="text;html=1;align=center;verticalAlign=middle;whiteSpace=wrap;rounded=0;" vertex="1" parent="1">
          <mxGeometry x="623" y="270" width="90" height="30" as="geometry" />
        </mxCell>
      </root>
    </mxGraphModel>
  </diagram>
</mxfile>
